# xmcd CD database file
#
# Track frame offsets:
#	150
#	13275
#	26975
#	40950
#	53300
#	63750
#	78062
#	92350
#	105500
#	119575
#	133787
#	145200
#	162187
#	173300
#
# Disc length: 2461 seconds
#
# Revision: 0
# Processed by: cddbd v1.4PL0 Copyright (c) Steve Scherf et al.
# Submitted via: CDex 1.50Beta7
#
DISCID=a7099b0e
DTITLE=Various Artist - Country and Western
DYEAR=1900
DGENRE=Country
TTITLE0=Jambalaya/Hank Williams
TTITLE1=Gentle On My Mind/Glenn Campbell
TTITLE2=Funny How the Time Slips Away/Willie Nelson
TTITLE3=Release Me/Ray Price
TTITLE4=North Wind/Texas Bill Strength
TTITLE5=San Antonio Rose/Hank Thompson
TTITLE6=Can the Circle Be Unbroken(Bye and Bye)/Carter Family,The
TTITLE7=Crazy/Willie Nelson
TTITLE8=Green Green Grass of the Home/Tom Jones
TTITLE9=Blue Moon Of Kentucky/Bill Monroe
TTITLE10=Dear John Letter/Jean Shepard
TTITLE11=Cold Cold Heart/Ray Price
TTITLE12=Hello Walls/Willie Nelson
TTITLE13=Young Love/Sonny James
EXTD=
EXTT0=
EXTT1=
EXTT2=
EXTT3=
EXTT4=
EXTT5=
EXTT6=
EXTT7=
EXTT8=
EXTT9=
EXTT10=
EXTT11=
EXTT12=
EXTT13=
PLAYORDER=
